<?xml version="1.0" encoding="UTF-8"?><svg id="Calque_2" xmlns="http://www.w3.org/2000/svg" viewBox="0 0 964 964"><defs><style>.cls-1{fill:#f2f2f2;}</style></defs><g id="Calque_2-2"><g id="Calque_1-2"><path class="cls-1" d="M482,949c-63.05,0-124.21-12.35-181.77-36.69-55.61-23.52-105.55-57.19-148.45-100.09-42.89-42.89-76.57-92.84-100.09-148.45-24.35-57.56-36.69-118.72-36.69-181.77s12.35-124.21,36.69-181.77c23.52-55.61,57.19-105.55,100.09-148.45,42.9-42.9,92.84-76.57,148.45-100.09,57.56-24.35,118.72-36.69,181.77-36.69s124.21,12.35,181.77,36.69c55.61,23.52,105.55,57.19,148.45,100.09,42.89,42.89,76.57,92.84,100.09,148.45,24.35,57.56,36.69,118.72,36.69,181.77s-12.35,124.21-36.69,181.77c-23.52,55.61-57.19,105.55-100.09,148.45-42.9,42.9-92.84,76.57-148.45,100.09-57.56,24.35-118.72,36.69-181.77,36.69h0Z"/><path d="M482,30c61.03,0,120.22,11.95,175.93,35.51,53.82,22.76,102.16,55.36,143.68,96.88,41.52,41.52,74.12,89.86,96.88,143.68,23.56,55.71,35.51,114.9,35.51,175.93s-11.95,120.22-35.51,175.93c-22.76,53.82-55.36,102.16-96.88,143.68-41.52,41.52-89.86,74.12-143.68,96.88-55.71,23.56-114.9,35.51-175.93,35.51s-120.22-11.95-175.93-35.51c-53.82-22.76-102.16-55.36-143.68-96.88-41.52-41.52-74.12-89.86-96.88-143.68-23.56-55.71-35.51-114.9-35.51-175.93s11.95-120.22,35.51-175.93c22.76-53.82,55.36-102.16,96.88-143.68,41.52-41.52,89.86-74.12,143.68-96.88,55.71-23.56,114.9-35.51,175.93-35.51M482,0C215.8,0,0,215.8,0,482s215.8,482,482,482,482-215.8,482-482S748.2,0,482,0h0Z"/></g><path d="M720.08,399.96c0,153.5-93.94,202.76-143.43,158.9-40.74-35.76-52.86-111.33-114.14-119.09-77.78-9.78-84.51,93.79-135.69,93.79-59.6,0-71.04-86.7-71.04-131.24s12.79-107.62,63.64-107.62c59.26,0,62.63,88.73,136.7,84.01,73.74-5.06,75.08-97.5,122.9-136.97,41.75-34.07,141.08,2.7,141.08,158.23Z"/><path d="M832.91,628.23l-63.28,52.77c-6.2,5.18-14.46,8.07-23.04,8.07H217.41c-8.58,0-16.81-2.89-23.04-8.07l-63.28-52.77c-19.03-15.85.69-43.1,25.16-34.78l65.08,22.08-8-27.8c-5.25-18.3,17.53-32.98,35.8-23,47.65,26.03,126.7,57.03,232.86,57.03s185.21-31,232.86-57.03c18.28-9.98,41.09,4.66,35.8,23l-8,27.8,65.08-22.08c24.48-8.32,44.19,18.93,25.16,34.78h0Z"/><path d="M225.03,542.66c.09,8.61-8.44,14.56-16.5,11.58-21.65-8.04-58.23-23.22-67.96-37.12-14.07-20.08-9.24-47.76,10.84-61.84,20.08-14.07,47.76-9.24,61.84,10.84,9.75,13.87,11.58,53.46,11.78,76.54h0Z"/><path d="M762.86,494.81c9.92-14.13,29.4-17.56,43.53-7.64,14.13,9.92,17.56,29.4,7.64,43.53-6.89,9.81-32.86,20.56-48.08,26.2-5.58,2.06-11.44-2.06-11.38-8.01.11-16.19,1.4-44.27,8.29-54.08h0Z"/></g></svg>